<?xml version="1.0" encoding="utf-8"?>
<!-- Generator: Adobe Illustrator 26.2.1, SVG Export Plug-In . SVG Version: 6.00 Build 0)  -->
<svg version="1.0" id="Layer_1" xmlns="http://www.w3.org/2000/svg" xmlns:xlink="http://www.w3.org/1999/xlink" x="0px" y="0px"
	 viewBox="0 0 170.079 194.172" enable-background="new 0 0 170.079 194.172" xml:space="preserve">
<line fill="none" stroke="#20181A" stroke-miterlimit="10" x1="2.835" y1="70.866" x2="65.197" y2="104.882"/>
<rect x="8.504" y="8.504" opacity="0.2" fill="#FBB040" width="158.74" height="158.741"/>
<rect x="147.401" y="48.189" opacity="0.3" fill="#00B1EC" width="17.008" height="79.371"/>
<rect x="48.189" y="11.338" opacity="0.7" fill="#FAA53A" width="34.016" height="17.008"/>
<rect x="34.016" y="147.402" opacity="0.7" fill="#D1D4D4" width="130.393" height="17.008"/>
<rect x="116.22" y="11.338" opacity="0.7" fill="#FAA53A" width="34.016" height="17.008"/>
<g>
	<path fill="#20181A" d="M125.311,20.112c0,2.651-0.983,4.114-2.711,4.114c-1.522,0-2.555-1.427-2.578-4.006
		c0-2.614,1.127-4.054,2.711-4.054C124.376,16.167,125.311,17.63,125.311,20.112z M121.078,20.232c0,2.027,0.624,3.178,1.583,3.178
		c1.08,0,1.596-1.259,1.596-3.25c0-1.919-0.492-3.179-1.584-3.179C121.749,16.982,121.078,18.109,121.078,20.232z"/>
	<path fill="#20181A" d="M126.37,23.471c0-0.444,0.3-0.756,0.72-0.756s0.708,0.312,0.708,0.756c0,0.432-0.276,0.755-0.721,0.755
		C126.658,24.226,126.37,23.902,126.37,23.471z"/>
	<path fill="#20181A" d="M131.061,17.282h-0.024l-1.355,0.732l-0.204-0.804l1.703-0.912h0.9v7.796h-1.02V17.282z"/>
	<path fill="#20181A" d="M139.184,23.195c-0.239,0.456-0.804,1.007-1.667,1.007c-0.527,0-1.02-0.192-1.271-0.636v0.72
		c0,0.636,0.012,1.703,0.132,2.183h-0.947c-0.12-0.36-0.168-1.211-0.168-2.135V18.29h1.044v3.43c0,0.899,0.383,1.643,1.307,1.643
		c0.695,0,1.199-0.504,1.392-0.972c0.06-0.156,0.096-0.348,0.096-0.54V18.29h1.044v4.209c0,0.636,0.131,0.888,0.551,0.912
		l-0.084,0.768c-0.119,0.036-0.191,0.048-0.359,0.048c-0.516,0-0.936-0.288-1.031-1.031H139.184z"/>
	<path fill="#20181A" d="M141.934,16.011h4.354v0.875h-3.31v2.687h3.058v0.863h-3.058v3.658h-1.044V16.011z"/>
</g>
<g>
	<path fill="#20181A" d="M54.65,22.883c0.3,0.192,0.996,0.492,1.727,0.492c1.355,0,1.775-0.863,1.763-1.511
		c-0.012-1.091-0.996-1.559-2.015-1.559h-0.587v-0.792h0.587c0.768,0,1.739-0.396,1.739-1.319c0-0.624-0.396-1.175-1.367-1.175
		c-0.624,0-1.224,0.276-1.559,0.516l-0.276-0.768c0.408-0.3,1.199-0.6,2.039-0.6c1.535,0,2.231,0.912,2.231,1.859
		c0,0.804-0.48,1.487-1.439,1.835v0.024c0.959,0.192,1.739,0.911,1.739,2.002c0,1.248-0.972,2.339-2.842,2.339
		c-0.875,0-1.643-0.276-2.027-0.528L54.65,22.883z"/>
	<path fill="#20181A" d="M60.806,22.883c0.3,0.192,0.996,0.492,1.727,0.492c1.355,0,1.775-0.863,1.763-1.511
		c-0.012-1.091-0.996-1.559-2.015-1.559h-0.587v-0.792h0.587c0.768,0,1.739-0.396,1.739-1.319c0-0.624-0.396-1.175-1.367-1.175
		c-0.624,0-1.224,0.276-1.559,0.516l-0.276-0.768c0.408-0.3,1.199-0.6,2.039-0.6c1.535,0,2.231,0.912,2.231,1.859
		c0,0.804-0.48,1.487-1.439,1.835v0.024c0.959,0.192,1.739,0.911,1.739,2.002c0,1.248-0.972,2.339-2.842,2.339
		c-0.875,0-1.643-0.276-2.027-0.528L60.806,22.883z"/>
	<path fill="#20181A" d="M67.045,20.185c0-0.744-0.024-1.343-0.048-1.895h0.947l0.048,0.995h0.024
		c0.432-0.708,1.115-1.127,2.062-1.127c1.403,0,2.459,1.187,2.459,2.95c0,2.087-1.271,3.118-2.639,3.118
		c-0.768,0-1.439-0.336-1.787-0.912h-0.024v3.154h-1.043V20.185z M68.089,21.731c0,0.156,0.024,0.3,0.048,0.432
		c0.192,0.732,0.828,1.235,1.583,1.235c1.115,0,1.763-0.911,1.763-2.243c0-1.163-0.611-2.159-1.727-2.159
		c-0.72,0-1.391,0.516-1.595,1.307c-0.036,0.132-0.072,0.288-0.072,0.432V21.731z"/>
	<path fill="#20181A" d="M73.91,16.011h4.354v0.875h-3.31v2.687h3.058v0.863h-3.058v3.658H73.91V16.011z"/>
</g>
<rect x="36.851" y="36.85" fill="#FFFFFF" stroke="#20181A" stroke-miterlimit="10" width="11.339" height="11.339"/>
<rect x="59.528" y="36.85" fill="#FFFFFF" stroke="#20181A" stroke-miterlimit="10" width="11.338" height="11.339"/>
<rect x="14.173" y="127.558" fill="#FFFFFF" stroke="#20181A" stroke-miterlimit="10" width="11.339" height="11.34"/>
<rect x="14.173" y="104.882" fill="#FFFFFF" stroke="#20181A" stroke-miterlimit="10" width="11.339" height="11.34"/>
<rect x="14.173" y="14.173" fill="#FFFFFF" stroke="#20181A" stroke-miterlimit="10" width="11.339" height="11.34"/>
<rect x="150.235" y="127.558" fill="#FFFFFF" stroke="#20181A" stroke-miterlimit="10" width="11.34" height="11.34"/>
<rect x="150.235" y="36.849" fill="#FFFFFF" stroke="#20181A" stroke-miterlimit="10" width="11.34" height="11.34"/>
<rect x="59.529" y="127.558" fill="#FFFFFF" stroke="#20181A" stroke-miterlimit="10" width="11.338" height="11.34"/>
<rect x="82.204" y="36.85" fill="#FFFFFF" stroke="#20181A" stroke-miterlimit="10" width="11.337" height="11.339"/>
<rect x="104.882" y="36.85" fill="#FFFFFF" stroke="#20181A" stroke-miterlimit="10" width="11.338" height="11.339"/>
<rect x="127.56" y="82.204" fill="#FFFFFF" stroke="#20181A" stroke-miterlimit="10" width="11.339" height="11.338"/>
<rect x="127.56" y="36.85" fill="#FFFFFF" stroke="#20181A" stroke-miterlimit="10" width="11.34" height="11.339"/>
<rect x="104.882" y="14.173" fill="#FFFFFF" stroke="#20181A" stroke-miterlimit="10" width="11.338" height="11.339"/>
<rect x="150.235" y="14.173" fill="#FFFFFF" stroke="#20181A" stroke-miterlimit="10" width="11.338" height="11.339"/>
<rect x="36.85" y="14.173" fill="#FFFFFF" stroke="#20181A" stroke-miterlimit="10" width="11.338" height="11.339"/>
<rect x="82.204" y="14.173" fill="#FFFFFF" stroke="#20181A" stroke-miterlimit="10" width="11.337" height="11.339"/>
<rect x="36.851" y="104.882" fill="#FFFFFF" stroke="#20181A" stroke-miterlimit="10" width="11.339" height="11.338"/>
<rect x="59.528" y="104.882" fill="#FFFFFF" stroke="#20181A" stroke-miterlimit="10" width="11.338" height="11.338"/>
<rect x="82.204" y="104.882" fill="#FFFFFF" stroke="#20181A" stroke-miterlimit="10" width="11.337" height="11.338"/>
<rect x="104.882" y="104.882" fill="#FFFFFF" stroke="#20181A" stroke-miterlimit="10" width="11.338" height="11.338"/>
<rect x="59.528" y="150.236" fill="#FFFFFF" stroke="#20181A" stroke-miterlimit="10" width="11.339" height="11.338"/>
<rect x="36.85" y="150.236" fill="#FFFFFF" stroke="#20181A" stroke-miterlimit="10" width="11.339" height="11.34"/>
<rect x="82.205" y="150.236" fill="#FFFFFF" stroke="#20181A" stroke-miterlimit="10" width="11.337" height="11.338"/>
<rect x="104.882" y="150.236" fill="#FFFFFF" stroke="#20181A" stroke-miterlimit="10" width="11.338" height="11.338"/>
<rect x="127.558" y="150.236" fill="#FFFFFF" stroke="#20181A" stroke-miterlimit="10" width="11.34" height="11.338"/>
<rect x="150.235" y="150.236" fill="#FFFFFF" stroke="#20181A" stroke-miterlimit="10" width="11.34" height="11.34"/>
<line fill="none" stroke="#20181A" stroke-miterlimit="10" x1="42.52" y1="116.22" x2="42.52" y2="150.236"/>
<line fill="none" stroke="#20181A" stroke-miterlimit="10" x1="65.197" y1="116.22" x2="65.197" y2="150.236"/>
<line fill="none" stroke="#20181A" stroke-miterlimit="10" x1="65.197" y1="48.189" x2="133.229" y2="110.551"/>
<line fill="none" stroke="#20181A" stroke-miterlimit="10" x1="110.551" y1="116.22" x2="110.551" y2="150.236"/>
<line fill="none" stroke="#20181A" stroke-miterlimit="10" x1="87.874" y1="116.22" x2="87.874" y2="150.236"/>
<line fill="none" stroke="#20181A" stroke-miterlimit="10" x1="155.905" y1="133.228" x2="155.905" y2="150.236"/>
<line fill="none" stroke="#20181A" stroke-miterlimit="10" x1="133.229" y1="150.236" x2="133.229" y2="110.551"/>
<line fill="none" stroke="#20181A" stroke-miterlimit="10" x1="25.512" y1="110.552" x2="36.85" y2="110.552"/>
<line fill="none" stroke="#20181A" stroke-miterlimit="10" x1="42.52" y1="19.843" x2="42.52" y2="36.85"/>
<line fill="none" stroke="#20181A" stroke-miterlimit="10" x1="87.874" y1="19.843" x2="87.874" y2="2.835"/>
<line fill="none" stroke="#20181A" stroke-miterlimit="10" x1="155.905" y1="19.843" x2="155.904" y2="2.835"/>
<line fill="none" stroke="#20181A" stroke-miterlimit="10" x1="155.905" y1="2.835" x2="2.835" y2="2.835"/>
<line fill="none" stroke="#20181A" stroke-miterlimit="10" x1="2.835" y1="2.835" x2="2.835" y2="70.866"/>
<line fill="none" stroke="#20181A" stroke-miterlimit="10" x1="19.843" y1="116.22" x2="19.843" y2="127.558"/>
<g>
	<path fill="#010101" d="M38.9,182.767c-0.211,0-0.316-0.12-0.316-0.36v-2.44c0-0.23,0.1-0.345,0.299-0.345s0.299,0.109,0.299,0.328
		v2.208h1.922v-0.922c0-0.533,0.199-0.963,0.598-1.286c0.266-0.216,0.584-0.324,0.955-0.324h0.668c0.442,0,0.804,0.151,1.083,0.452
		c0.296,0.318,0.444,0.67,0.444,1.055v1.295c0,0.213-0.097,0.319-0.291,0.319c-0.196,0-0.294-0.116-0.294-0.349v-1.153
		c0-0.349-0.119-0.616-0.357-0.802c-0.177-0.138-0.386-0.207-0.626-0.207h-0.627c-0.249,0-0.465,0.082-0.647,0.245
		c-0.205,0.183-0.308,0.462-0.308,0.838v1.146c0,0.202-0.117,0.303-0.353,0.303H38.9z"/>
	<path fill="#010101" d="M43.606,176.476l-4.748-1.598c-0.183-0.062-0.274-0.161-0.274-0.299c0-0.205,0.098-0.309,0.291-0.309
		c0.053,0,0.116,0.014,0.191,0.038l5.503,1.831c0.188,0.061,0.282,0.17,0.282,0.327c0,0.133-0.092,0.231-0.273,0.294l-5.57,1.881
		c-0.05,0.017-0.096,0.025-0.137,0.025c-0.18,0-0.27-0.109-0.27-0.328c0-0.127,0.097-0.223,0.29-0.287L43.606,176.476z"/>
</g>
<g>
	<path fill="#010101" d="M42.355,108.845h-0.016l-0.904,0.486l-0.136-0.535l1.135-0.607h0.6v5.197h-0.679V108.845z"/>
</g>
<g>
	<path fill="#010101" d="M63.505,113.386v-0.432l0.552-0.537c1.327-1.262,1.927-1.934,1.935-2.717c0-0.529-0.256-1.016-1.031-1.016
		c-0.472,0-0.863,0.238-1.104,0.439l-0.224-0.496c0.36-0.305,0.872-0.527,1.471-0.527c1.119,0,1.591,0.768,1.591,1.512
		c0,0.959-0.696,1.734-1.791,2.789l-0.416,0.385v0.016h2.335v0.584H63.505z"/>
</g>
<g>
	<path fill="#010101" d="M86.351,112.578c0.2,0.129,0.664,0.328,1.151,0.328c0.903,0,1.183-0.576,1.175-1.008
		c-0.008-0.727-0.663-1.039-1.343-1.039h-0.392v-0.527h0.392c0.512,0,1.159-0.264,1.159-0.879c0-0.416-0.264-0.785-0.911-0.785
		c-0.416,0-0.815,0.186-1.04,0.344l-0.184-0.512c0.271-0.199,0.8-0.398,1.359-0.398c1.023,0,1.487,0.607,1.487,1.238
		c0,0.537-0.319,0.992-0.96,1.225v0.016c0.641,0.127,1.16,0.607,1.16,1.336c0,0.83-0.648,1.559-1.896,1.559
		c-0.583,0-1.095-0.184-1.351-0.352L86.351,112.578z"/>
</g>
<g>
	<path fill="#010101" d="M111.034,113.386v-1.416h-2.414v-0.463l2.318-3.318h0.76v3.23h0.728v0.551h-0.728v1.416H111.034z
		 M111.034,111.419v-1.736c0-0.271,0.008-0.543,0.024-0.814h-0.024c-0.16,0.303-0.287,0.527-0.432,0.768l-1.271,1.768v0.016H111.034
		z"/>
</g>
<g>
	<path fill="#010101" d="M111.962,40.749h-1.982l-0.2,1.335c0.12-0.016,0.231-0.031,0.424-0.031c0.399,0,0.8,0.088,1.119,0.279
		c0.407,0.232,0.743,0.68,0.743,1.335c0,1.016-0.807,1.775-1.934,1.775c-0.568,0-1.049-0.16-1.296-0.319l0.176-0.536
		c0.216,0.128,0.64,0.288,1.111,0.288c0.663,0,1.231-0.432,1.231-1.128c-0.008-0.671-0.455-1.151-1.495-1.151
		c-0.296,0-0.528,0.032-0.72,0.057l0.336-2.495h2.486V40.749z"/>
</g>
<g>
	<path fill="#010101" d="M89.149,40.653c-0.145-0.008-0.328,0-0.528,0.031c-1.104,0.185-1.687,0.992-1.807,1.848h0.024
		c0.247-0.328,0.679-0.6,1.255-0.6c0.919,0,1.567,0.663,1.567,1.679c0,0.951-0.648,1.831-1.728,1.831
		c-1.111,0-1.839-0.863-1.839-2.215c0-1.023,0.368-1.831,0.879-2.343c0.432-0.424,1.008-0.688,1.664-0.768
		c0.207-0.032,0.383-0.04,0.512-0.04V40.653z M88.949,43.651c0-0.743-0.424-1.191-1.071-1.191c-0.424,0-0.816,0.264-1.008,0.64
		c-0.048,0.08-0.08,0.184-0.08,0.312c0.016,0.855,0.408,1.487,1.144,1.487C88.541,44.898,88.949,44.395,88.949,43.651z"/>
</g>
<g>
	<path fill="#010101" d="M66.879,40.157v0.464l-2.263,4.733h-0.728l2.255-4.598v-0.016h-2.543v-0.584H66.879z"/>
</g>
<g>
	<path fill="#010101" d="M40.764,44.035c0-0.655,0.392-1.119,1.031-1.392l-0.008-0.023c-0.576-0.271-0.824-0.72-0.824-1.168
		c0-0.823,0.696-1.383,1.607-1.383c1.007,0,1.511,0.632,1.511,1.279c0,0.439-0.216,0.911-0.855,1.216v0.023
		c0.648,0.256,1.048,0.712,1.048,1.344c0,0.903-0.776,1.511-1.767,1.511C41.42,45.442,40.764,44.794,40.764,44.035z M43.562,44.002
		c0-0.631-0.439-0.936-1.144-1.135c-0.607,0.176-0.935,0.575-0.935,1.071c-0.024,0.527,0.375,0.991,1.039,0.991
		C43.155,44.93,43.562,44.539,43.562,44.002z M41.627,41.404c0,0.521,0.392,0.8,0.992,0.96c0.448-0.152,0.792-0.472,0.792-0.943
		c0-0.416-0.248-0.848-0.879-0.848C41.947,40.573,41.627,40.957,41.627,41.404z"/>
</g>
<g>
	<path fill="#010101" d="M66.91,182.259h-2.549v0.652c0,0.195-0.098,0.294-0.294,0.294c-0.199,0-0.299-0.094-0.299-0.282v-0.992
		c0-0.177,0.131-0.266,0.394-0.266h2.984c0.241,0,0.361,0.115,0.361,0.345v2.018c0,0.302-0.137,0.608-0.409,0.921
		s-0.705,0.469-1.297,0.469H62.71c-0.391,0-0.732-0.158-1.027-0.475s-0.442-0.68-0.442-1.09v-1.834c0-0.244,0.1-0.365,0.299-0.365
		s0.299,0.12,0.299,0.361v1.771c0,0.305,0.1,0.554,0.299,0.747c0.199,0.194,0.441,0.291,0.727,0.291h3.005
		c0.307,0,0.558-0.091,0.751-0.271c0.194-0.18,0.291-0.38,0.291-0.602V182.259z"/>
	<path fill="#010101" d="M66.047,177.32h-4.491c-0.21,0-0.315-0.095-0.315-0.286c0-0.19,0.102-0.286,0.304-0.286h5.615
		c0.229,0,0.344,0.092,0.344,0.273c0,0.128-0.074,0.232-0.224,0.316l-4.562,2.557h4.441c0.221,0,0.332,0.104,0.332,0.314
		c0,0.188-0.113,0.283-0.341,0.283h-5.54c-0.247,0-0.37-0.1-0.37-0.299c0-0.131,0.063-0.231,0.191-0.304L66.047,177.32z"/>
	<path fill="#010101" d="M61.602,175.503c-0.227,0-0.341-0.115-0.341-0.345v-1.946c0-0.383,0.15-0.723,0.449-1.02
		s0.638-0.446,1.017-0.446h3.349c0.38,0,0.717,0.149,1.011,0.448c0.295,0.299,0.442,0.619,0.442,0.959v2.071
		c0,0.185-0.123,0.278-0.369,0.278H61.602z M66.931,174.893v-1.44c0-0.371-0.096-0.648-0.288-0.832s-0.429-0.276-0.708-0.276h-3.117
		c-0.246,0-0.468,0.091-0.664,0.271s-0.295,0.418-0.295,0.713v1.565H66.931z"/>
</g>
<g>
	<path fill="#010101" d="M84.614,180.67c1.972,0,3.018,1.198,3.018,2.66c0,1.513-1.173,2.575-2.907,2.575
		c-1.818,0-3.009-1.131-3.009-2.66C81.716,181.681,82.915,180.67,84.614,180.67z M84.708,185.116c1.224,0,2.32-0.663,2.32-1.827
		c0-1.174-1.079-1.836-2.38-1.836c-1.139,0-2.329,0.595-2.329,1.827C82.319,184.503,83.45,185.116,84.708,185.116z"/>
	<path fill="#010101" d="M81.81,178.97h3.392c1.283,0,1.827-0.569,1.827-1.334c0-0.851-0.562-1.395-1.827-1.395H81.81v-0.748h3.34
		c1.76,0,2.482,0.927,2.482,2.168c0,1.172-0.672,2.057-2.448,2.057H81.81V178.97z"/>
	<path fill="#010101" d="M82.438,173.123v1.742H81.81v-4.241h0.629v1.751h5.1v0.748H82.438z"/>
</g>
<g>
	<path fill="#010101" d="M108.186,192.193c-0.432,0-0.802-0.148-1.11-0.447s-0.463-0.66-0.463-1.084
		c0-0.586,0.091-1.119,0.271-1.598c0.074-0.199,0.189-0.299,0.345-0.299c0.19,0,0.286,0.096,0.286,0.287
		c0,0.08-0.033,0.205-0.1,0.377c-0.139,0.357-0.208,0.737-0.208,1.141c0,0.365,0.13,0.645,0.391,0.835
		c0.157,0.116,0.365,0.175,0.622,0.175c0.352,0,0.637-0.215,0.855-0.645l0.768-1.514c0.338-0.656,0.827-0.984,1.47-0.984
		c0.48,0,0.87,0.172,1.166,0.516c0.269,0.309,0.402,0.682,0.402,1.115c0,0.659-0.198,1.29-0.594,1.893
		c-0.103,0.155-0.216,0.232-0.34,0.232c-0.191,0-0.287-0.102-0.287-0.307c0-0.074,0.045-0.174,0.133-0.299
		c0.313-0.438,0.47-0.961,0.47-1.572c0-0.181-0.038-0.342-0.112-0.486c-0.166-0.318-0.452-0.477-0.859-0.477
		c-0.385,0-0.682,0.208-0.893,0.626l-0.825,1.632C109.274,191.898,108.812,192.193,108.186,192.193z"/>
	<path fill="#010101" d="M106.879,187.607c-0.19,0-0.286-0.121-0.286-0.365v-3.075c0-0.199,0.1-0.299,0.299-0.299
		c0.202,0,0.304,0.097,0.304,0.29v1.274h5.357c0.219,0,0.328,0.101,0.328,0.303s-0.106,0.304-0.319,0.304h-5.366v1.211
		C107.195,187.488,107.09,187.607,106.879,187.607z"/>
	<path fill="#010101" d="M106.639,182.506v-1.64c0-0.506,0.227-0.967,0.681-1.382c0.299-0.274,0.641-0.411,1.025-0.411
		c0.37,0,0.719,0.069,1.046,0.208c0.356,0.151,0.635,0.466,0.834,0.942l2.129-1.084c0.086-0.041,0.156-0.062,0.212-0.062
		c0.21,0,0.315,0.104,0.315,0.308c0,0.108-0.079,0.2-0.236,0.278l-2.271,1.162v1.406h2.179c0.219,0,0.328,0.102,0.328,0.304
		c0,0.196-0.11,0.294-0.332,0.294h-5.591C106.745,182.83,106.639,182.722,106.639,182.506z M109.764,182.22v-1.357
		c0-0.287-0.137-0.576-0.41-0.863c-0.214-0.225-0.514-0.336-0.901-0.336c-0.293,0-0.565,0.121-0.817,0.365
		c-0.269,0.257-0.402,0.537-0.402,0.838v1.354H109.764z"/>
	<path fill="#010101" d="M108.365,178.037c-0.459,0-0.869-0.182-1.229-0.544c-0.362-0.365-0.544-0.812-0.544-1.337
		c0-0.5,0.18-0.932,0.54-1.295c0.379-0.382,0.818-0.572,1.319-0.572h2.536c0.542,0,0.997,0.189,1.365,0.568
		c0.352,0.362,0.527,0.805,0.527,1.328c0,0.492-0.176,0.923-0.527,1.291c-0.359,0.373-0.775,0.561-1.249,0.561H108.365z
		 M111.125,177.426c0.299,0,0.573-0.139,0.822-0.415c0.213-0.241,0.319-0.511,0.319-0.81c0-0.349-0.099-0.632-0.295-0.851
		c-0.276-0.308-0.599-0.461-0.967-0.461h-2.523c-0.404,0-0.724,0.146-0.959,0.436c-0.21,0.26-0.315,0.554-0.315,0.88
		c0,0.274,0.106,0.542,0.32,0.806c0.224,0.276,0.536,0.415,0.938,0.415H111.125z"/>
	<path fill="#010101" d="M110.972,169.258c0.608,0,1.079,0.192,1.411,0.579c0.332,0.386,0.498,0.75,0.498,1.094v1.822
		c0,0.193-0.126,0.29-0.378,0.29h-5.499c-0.26,0-0.391-0.128-0.391-0.386v-1.295c0-0.525,0.105-0.909,0.316-1.15
		c0.367-0.42,0.785-0.631,1.253-0.631c0.509,0,0.916,0.194,1.22,0.582c0.15-0.258,0.364-0.473,0.644-0.646
		C110.325,169.345,110.634,169.258,110.972,169.258z M107.232,172.404h1.896v-1.266c0-0.318-0.087-0.557-0.26-0.716
		s-0.388-0.239-0.645-0.239c-0.261,0-0.491,0.085-0.691,0.254c-0.201,0.169-0.301,0.408-0.301,0.719V172.404z M109.776,172.404
		h2.527v-1.295c0-0.376-0.13-0.678-0.39-0.904c-0.261-0.227-0.548-0.34-0.863-0.34s-0.607,0.105-0.876,0.318
		c-0.266,0.211-0.398,0.516-0.398,0.914V172.404z"/>
	<path fill="#010101" d="M112.263,167.499v-2.212c0-0.205,0.1-0.307,0.299-0.307s0.299,0.098,0.299,0.294v2.548
		c0,0.184-0.104,0.274-0.312,0.274h-5.632c-0.216,0-0.324-0.123-0.324-0.37v-2.419c0-0.224,0.102-0.337,0.304-0.337
		c0.199,0,0.299,0.113,0.299,0.337v2.191h1.934v-1.603c0-0.201,0.1-0.303,0.299-0.303c0.188,0,0.282,0.099,0.282,0.295v1.61H112.263
		z"/>
</g>
<g>
	<path fill="#010101" d="M131.237,188.773v-1.639c0-0.506,0.227-0.967,0.681-1.383c0.299-0.273,0.641-0.41,1.025-0.41
		c0.37,0,0.719,0.068,1.046,0.207c0.356,0.152,0.635,0.467,0.834,0.942l2.129-1.083c0.086-0.041,0.156-0.062,0.212-0.062
		c0.21,0,0.315,0.103,0.315,0.307c0,0.108-0.079,0.201-0.236,0.279l-2.271,1.162v1.406h2.179c0.219,0,0.328,0.102,0.328,0.303
		c0,0.197-0.11,0.295-0.332,0.295h-5.591C131.344,189.097,131.237,188.99,131.237,188.773z M134.362,188.488v-1.357
		c0-0.288-0.137-0.576-0.41-0.863c-0.214-0.225-0.514-0.336-0.901-0.336c-0.293,0-0.565,0.121-0.817,0.365
		c-0.269,0.256-0.402,0.536-0.402,0.838v1.354H134.362z"/>
	<path fill="#010101" d="M136.861,183.707v-2.213c0-0.205,0.1-0.307,0.299-0.307s0.299,0.098,0.299,0.295v2.548
		c0,0.183-0.104,0.274-0.312,0.274h-5.632c-0.216,0-0.324-0.123-0.324-0.37v-2.419c0-0.225,0.102-0.337,0.304-0.337
		c0.199,0,0.299,0.112,0.299,0.337v2.191h1.934v-1.603c0-0.202,0.1-0.303,0.299-0.303c0.188,0,0.282,0.099,0.282,0.294v1.611
		H136.861z"/>
	<path fill="#010101" d="M132.785,180.348c-0.432,0-0.802-0.149-1.11-0.448s-0.463-0.66-0.463-1.083c0-0.587,0.091-1.12,0.271-1.599
		c0.074-0.199,0.189-0.299,0.345-0.299c0.19,0,0.286,0.096,0.286,0.287c0,0.08-0.033,0.206-0.1,0.377
		c-0.139,0.357-0.208,0.738-0.208,1.142c0,0.365,0.13,0.644,0.391,0.835c0.157,0.115,0.365,0.174,0.622,0.174
		c0.352,0,0.637-0.215,0.855-0.644l0.768-1.515c0.338-0.656,0.827-0.983,1.47-0.983c0.48,0,0.87,0.171,1.166,0.515
		c0.269,0.31,0.402,0.682,0.402,1.116c0,0.659-0.198,1.29-0.594,1.893c-0.103,0.155-0.216,0.232-0.34,0.232
		c-0.191,0-0.287-0.103-0.287-0.308c0-0.074,0.045-0.174,0.133-0.299c0.313-0.437,0.47-0.961,0.47-1.572
		c0-0.18-0.038-0.342-0.112-0.486c-0.166-0.318-0.452-0.477-0.859-0.477c-0.385,0-0.682,0.209-0.893,0.627l-0.825,1.631
		C133.873,180.053,133.411,180.348,132.785,180.348z"/>
	<path fill="#010101" d="M136.861,174.957v-2.212c0-0.204,0.1-0.307,0.299-0.307s0.299,0.099,0.299,0.294v2.549
		c0,0.183-0.104,0.273-0.312,0.273h-5.632c-0.216,0-0.324-0.123-0.324-0.369v-2.42c0-0.224,0.102-0.336,0.304-0.336
		c0.199,0,0.299,0.112,0.299,0.336v2.191h1.934v-1.602c0-0.202,0.1-0.303,0.299-0.303c0.188,0,0.282,0.098,0.282,0.295v1.609
		H136.861z"/>
	<path fill="#010101" d="M131.477,171.599c-0.19,0-0.286-0.121-0.286-0.365v-3.075c0-0.199,0.1-0.299,0.299-0.299
		c0.202,0,0.304,0.097,0.304,0.29v1.274h5.357c0.219,0,0.328,0.101,0.328,0.303s-0.106,0.304-0.319,0.304h-5.366v1.211
		C131.794,171.48,131.688,171.599,131.477,171.599z"/>
</g>
<g>
	<path fill="#010101" d="M158.739,181.076c0,0.211-0.13,0.316-0.391,0.316h-5.503c-0.249,0-0.374-0.105-0.374-0.316
		c0-0.21,0.129-0.314,0.387-0.314h5.482C158.606,180.761,158.739,180.866,158.739,181.076z"/>
	<path fill="#010101" d="M157.258,176.345h-4.491c-0.21,0-0.315-0.096-0.315-0.287c0-0.19,0.102-0.286,0.304-0.286h5.615
		c0.229,0,0.344,0.091,0.344,0.274c0,0.127-0.074,0.232-0.224,0.314l-4.562,2.557h4.441c0.221,0,0.332,0.105,0.332,0.316
		c0,0.188-0.113,0.281-0.341,0.281h-5.54c-0.247,0-0.37-0.1-0.37-0.299c0-0.129,0.063-0.23,0.191-0.303L157.258,176.345z"/>
</g>
<rect x="34.016" y="48.189" opacity="0.7" fill="#D1D4D4" width="85.039" height="56.693"/>
<g>
	<path fill="#20181A" d="M60.098,75.224c-0.07-1.316-0.154-2.899-0.14-4.076h-0.042c-0.322,1.107-0.714,2.283-1.191,3.586
		l-1.667,4.581h-0.925l-1.527-4.496c-0.448-1.331-0.826-2.55-1.092-3.67h-0.028c-0.028,1.177-0.098,2.76-0.182,4.174l-0.252,4.048
		H51.89l0.658-9.441h1.555l1.611,4.566c0.392,1.163,0.714,2.199,0.952,3.18h0.042c0.238-0.953,0.575-1.989,0.995-3.18l1.681-4.566
		h1.555l0.588,9.441h-1.191L60.098,75.224z"/>
	<path fill="#20181A" d="M63.229,77.885c0.546,0.336,1.345,0.616,2.185,0.616c1.247,0,1.975-0.658,1.975-1.611
		c0-0.882-0.504-1.387-1.779-1.877c-1.541-0.546-2.494-1.345-2.494-2.675c0-1.471,1.219-2.563,3.054-2.563
		c0.967,0,1.667,0.224,2.087,0.462l-0.336,0.995c-0.308-0.168-0.938-0.448-1.793-0.448c-1.289,0-1.779,0.77-1.779,1.415
		c0,0.882,0.574,1.317,1.877,1.821c1.597,0.617,2.409,1.387,2.409,2.774c0,1.457-1.079,2.717-3.306,2.717
		c-0.911,0-1.905-0.266-2.409-0.603L63.229,77.885z"/>
	<path fill="#20181A" d="M77.485,78.95c-0.546,0.196-1.625,0.519-2.899,0.519c-1.429,0-2.605-0.364-3.53-1.247
		c-0.812-0.785-1.316-2.045-1.316-3.516c0.014-2.815,1.947-4.875,5.113-4.875c1.092,0,1.947,0.238,2.353,0.434l-0.294,0.995
		c-0.504-0.224-1.135-0.406-2.087-0.406c-2.297,0-3.796,1.429-3.796,3.796c0,2.396,1.443,3.81,3.642,3.81
		c0.798,0,1.345-0.112,1.625-0.252v-2.815h-1.919v-0.98h3.11V78.95z"/>
	<path fill="#20181A" d="M84.232,74.944h-3.67v3.404h4.09v1.022h-5.309v-9.441h5.099v1.022h-3.88v2.983h3.67V74.944z"/>
	<path fill="#20181A" d="M94.019,80.757c-1.274-0.336-2.521-0.714-3.614-1.093c-0.196-0.07-0.393-0.14-0.574-0.14
		c-2.241-0.084-4.16-1.737-4.16-4.777c0-3.025,1.849-4.973,4.398-4.973c2.562,0,4.23,1.989,4.23,4.777
		c0,2.423-1.121,3.978-2.689,4.524v0.056c0.938,0.238,1.961,0.462,2.76,0.603L94.019,80.757z M93.011,74.607
		c0-1.891-0.98-3.838-2.983-3.838c-2.06,0-3.067,1.905-3.054,3.95c-0.014,2.003,1.092,3.81,2.998,3.81
		C91.918,78.53,93.011,76.765,93.011,74.607z"/>
	<path fill="#20181A" d="M101.354,70.265v0.812L97.39,79.37h-1.274l3.95-8.054v-0.028H95.61v-1.022H101.354z"/>
</g>
<line fill="none" stroke="#20181A" stroke-miterlimit="10" x1="116.22" y1="42.52" x2="133.229" y2="42.52"/>
<line fill="none" stroke="#20181A" stroke-miterlimit="10" x1="133.227" y1="87.874" x2="155.905" y2="42.52"/>
<line fill="none" stroke="#20181A" stroke-miterlimit="10" x1="87.875" y1="36.85" x2="110.552" y2="19.843"/>
<line fill="none" stroke="#20181A" stroke-miterlimit="10" x1="19.843" y1="19.842" x2="42.52" y2="19.842"/>
<line opacity="0.3" fill="none" stroke="#00AEEF" stroke-miterlimit="10" x1="19.843" y1="19.843" x2="19.843" y2="25.512"/>
<line opacity="0.3" fill="none" stroke="#00AEEF" stroke-miterlimit="10" x1="19.843" y1="104.881" x2="19.843" y2="110.549"/>
<line opacity="0.3" fill="none" stroke="#00AEEF" stroke-miterlimit="10" x1="155.905" y1="42.52" x2="155.905" y2="48.188"/>
<line opacity="0.3" fill="none" stroke="#00AEEF" stroke-miterlimit="10" x1="155.905" y1="127.558" x2="155.905" y2="133.226"/>
<line opacity="0.7" fill="none" stroke="#F7941D" stroke-miterlimit="10" x1="42.521" y1="19.842" x2="48.189" y2="19.842"/>
<line opacity="0.7" fill="none" stroke="#F7941D" stroke-miterlimit="10" x1="82.205" y1="19.842" x2="87.873" y2="19.842"/>
<line opacity="0.7" fill="none" stroke="#F7941D" stroke-miterlimit="10" x1="110.554" y1="19.842" x2="116.222" y2="19.842"/>
<line opacity="0.7" fill="none" stroke="#F7941D" stroke-miterlimit="10" x1="150.236" y1="19.842" x2="155.904" y2="19.842"/>
<line opacity="0.7" fill="none" stroke="#F7941D" stroke-miterlimit="10" x1="133.229" y1="87.874" x2="133.229" y2="82.206"/>
<line opacity="0.7" fill="none" stroke="#F7941D" stroke-miterlimit="10" x1="133.229" y1="48.191" x2="133.229" y2="42.523"/>
<rect x="25.512" y="124.724" opacity="0.7" fill="#FAA53A" width="34.016" height="17.008"/>
<g>
	<path fill="#20181A" d="M34.603,132.08c0,2.651-0.983,4.114-2.71,4.114c-1.523,0-2.555-1.427-2.579-4.006
		c0-2.614,1.127-4.054,2.71-4.054C33.667,128.134,34.603,129.597,34.603,132.08z M30.37,132.201c0,2.026,0.624,3.178,1.583,3.178
		c1.08,0,1.595-1.26,1.595-3.25c0-1.919-0.492-3.179-1.583-3.179C31.041,128.95,30.37,130.078,30.37,132.201z"/>
	<path fill="#20181A" d="M35.662,135.439c0-0.444,0.3-0.756,0.72-0.756s0.708,0.312,0.708,0.756c0,0.432-0.276,0.755-0.72,0.755
		C35.95,136.194,35.662,135.871,35.662,135.439z"/>
	<path fill="#20181A" d="M40.352,129.25h-0.024l-1.355,0.732l-0.204-0.805l1.703-0.911h0.9v7.796h-1.02V129.25z"/>
	<path fill="#20181A" d="M48.475,135.163c-0.24,0.456-0.804,1.007-1.667,1.007c-0.528,0-1.02-0.191-1.271-0.635v0.719
		c0,0.637,0.012,1.703,0.132,2.184h-0.947c-0.12-0.36-0.168-1.211-0.168-2.135v-6.045h1.043v3.43c0,0.9,0.384,1.644,1.307,1.644
		c0.696,0,1.2-0.504,1.392-0.972c0.06-0.156,0.096-0.348,0.096-0.539v-3.562h1.043v4.209c0,0.637,0.132,0.889,0.552,0.912
		l-0.084,0.768c-0.12,0.036-0.192,0.048-0.36,0.048c-0.516,0-0.936-0.288-1.031-1.031H48.475z"/>
	<path fill="#20181A" d="M51.225,127.978h4.354v0.876h-3.31v2.687h3.058v0.863h-3.058v3.658h-1.043V127.978z"/>
</g>
<line opacity="0.7" fill="none" stroke="#F7941D" stroke-miterlimit="10" x1="59.529" y1="133.228" x2="65.197" y2="133.228"/>
<line opacity="0.7" fill="none" stroke="#F7941D" stroke-miterlimit="10" x1="19.844" y1="133.228" x2="25.512" y2="133.228"/>
<rect x="124.724" y="48.188" opacity="0.7" fill="#FAA53A" width="17.008" height="34.016"/>
<g>
	<path fill="#20181A" d="M133.499,73.112c2.65,0,4.113,0.983,4.113,2.71c0,1.523-1.427,2.555-4.006,2.579
		c-2.613,0-4.053-1.127-4.053-2.71C129.554,74.048,131.017,73.112,133.499,73.112z M133.619,77.346c2.026,0,3.179-0.624,3.179-1.583
		c0-1.08-1.26-1.595-3.25-1.595c-1.92,0-3.18,0.492-3.18,1.583C130.368,76.674,131.496,77.346,133.619,77.346z"/>
	<path fill="#20181A" d="M136.857,72.054c-0.444,0-0.756-0.3-0.756-0.72s0.312-0.708,0.756-0.708c0.432,0,0.755,0.276,0.755,0.72
		C137.612,71.766,137.289,72.054,136.857,72.054z"/>
	<path fill="#20181A" d="M130.669,67.363v0.024l0.731,1.355l-0.804,0.204l-0.912-1.703v-0.9h7.797v1.02H130.669z"/>
	<path fill="#20181A" d="M136.581,59.24c0.456,0.24,1.008,0.804,1.008,1.667c0,0.528-0.191,1.02-0.636,1.271h0.72
		c0.636,0,1.703-0.012,2.183-0.132v0.947c-0.36,0.12-1.211,0.168-2.135,0.168h-6.044v-1.043h3.43c0.899,0,1.643-0.384,1.643-1.307
		c0-0.696-0.504-1.2-0.971-1.392c-0.156-0.06-0.348-0.096-0.54-0.096h-3.562v-1.043h4.209c0.636,0,0.888-0.132,0.912-0.552
		l0.768,0.084c0.035,0.12,0.047,0.192,0.047,0.36c0,0.516-0.287,0.936-1.031,1.031V59.24z"/>
	<path fill="#20181A" d="M129.397,56.49v-4.354h0.875v3.31h2.688v-3.058h0.863v3.058h3.658v1.043H129.397z"/>
</g>
<path fill="#939598" d="M44.979,99.59c0,1.358-1.101,2.457-2.459,2.457c-1.357,0-2.458-1.099-2.458-2.457
	c0-1.357,1.101-2.458,2.458-2.458C43.877,97.132,44.979,98.233,44.979,99.59z"/>
<rect x="11.339" y="25.512" opacity="0.3" fill="#00B1EC" width="17.008" height="79.371"/>
<g>
	<path fill="#20181A" d="M160.158,100.09h-0.647l-0.804-0.827c-1.896-1.991-2.902-2.891-4.077-2.902
		c-0.792,0-1.523,0.383-1.523,1.547c0,0.707,0.359,1.295,0.659,1.654l-0.743,0.336c-0.456-0.539-0.792-1.307-0.792-2.207
		c0-1.679,1.151-2.387,2.267-2.387c1.439,0,2.604,1.044,4.186,2.688l0.576,0.623h0.023v-3.502h0.876V100.09z"/>
	<path fill="#20181A" d="M160.158,93.935h-0.647l-0.804-0.828c-1.896-1.991-2.902-2.891-4.077-2.902
		c-0.792,0-1.523,0.384-1.523,1.547c0,0.708,0.359,1.295,0.659,1.655l-0.743,0.336c-0.456-0.54-0.792-1.308-0.792-2.207
		c0-1.679,1.151-2.387,2.267-2.387c1.439,0,2.604,1.043,4.186,2.687l0.576,0.624h0.023v-3.502h0.876V93.935z"/>
	<path fill="#20181A" d="M157.017,86.399v-0.024c-0.205-0.144-0.457-0.348-0.66-0.516l-2.003-1.703v-1.271l2.387,2.243l3.418-2.554
		v1.283l-2.782,2.003l0.6,0.54h2.183v1.043h-8.515v-1.043H157.017z"/>
	<path fill="#20181A" d="M160.158,82.331h-0.827v-1.739h-0.049c-0.659,0.803-1.858,1.583-3.418,1.583
		c-2.303,0-3.922-1.619-3.922-3.766c0-2.243,1.691-3.646,3.826-3.646c1.655,0,2.842,0.792,3.514,1.595h0.049v-1.763h0.827v3.035
		h-0.659c-0.66-0.959-1.943-1.787-3.562-1.787c-1.475,0-3.143,0.875-3.143,2.59c0,1.703,1.571,2.651,3.154,2.651
		c1.512,0,2.951-0.84,3.551-1.799h0.659V82.331z"/>
</g>
<g>
	<path fill="#20181A" d="M24.095,73.162h-0.647l-0.804-0.828c-1.895-1.991-2.902-2.891-4.078-2.902
		c-0.792,0-1.523,0.384-1.523,1.547c0,0.708,0.36,1.295,0.66,1.655l-0.744,0.336c-0.456-0.54-0.792-1.308-0.792-2.207
		c0-1.679,1.151-2.387,2.267-2.387c1.439,0,2.603,1.043,4.186,2.687l0.576,0.624h0.024v-3.502h0.875V73.162z"/>
	<path fill="#20181A" d="M20.113,61.825c2.651,0,4.114,0.983,4.114,2.71c0,1.523-1.427,2.555-4.006,2.579
		c-2.614,0-4.054-1.127-4.054-2.71C16.167,62.76,17.63,61.825,20.113,61.825z M20.233,66.058c2.027,0,3.178-0.624,3.178-1.583
		c0-1.08-1.259-1.595-3.25-1.595c-1.919,0-3.179,0.492-3.179,1.583C16.982,65.387,18.11,66.058,20.233,66.058z"/>
	<path fill="#20181A" d="M20.113,55.669c2.651,0,4.114,0.983,4.114,2.71c0,1.523-1.427,2.555-4.006,2.579
		c-2.614,0-4.054-1.127-4.054-2.71C16.167,56.605,17.63,55.669,20.113,55.669z M20.233,59.902c2.027,0,3.178-0.624,3.178-1.583
		c0-1.08-1.259-1.595-3.25-1.595c-1.919,0-3.179,0.492-3.179,1.583C16.982,59.231,18.11,59.902,20.233,59.902z"/>
	<path fill="#20181A" d="M20.953,53.315v-0.024c-0.204-0.144-0.456-0.348-0.66-0.516l-2.003-1.703v-1.271l2.387,2.243l3.418-2.554
		v1.283l-2.782,2.003l0.6,0.54h2.183v1.043H15.58v-1.043H20.953z"/>
	<path fill="#20181A" d="M24.095,49.246h-0.828v-1.739h-0.048c-0.66,0.803-1.859,1.583-3.418,1.583
		c-2.303,0-3.922-1.619-3.922-3.766c0-2.243,1.691-3.646,3.826-3.646c1.655,0,2.842,0.792,3.514,1.595h0.048V41.51h0.828v3.035
		h-0.66c-0.66-0.959-1.943-1.787-3.562-1.787c-1.475,0-3.142,0.875-3.142,2.59c0,1.703,1.571,2.651,3.154,2.651
		c1.511,0,2.95-0.84,3.55-1.799h0.66V49.246z"/>
</g>
<g>
</g>
<g>
</g>
<g>
</g>
<g>
</g>
<g>
</g>
<g>
</g>
</svg>
